<svg width="149" height="52" viewBox="0 0 149 52" fill="none" xmlns="http://www.w3.org/2000/svg">
<path d="M39.6273 0H13.2091C5.91391 0 0 5.8203 0 13V39C0 46.1797 5.91391 52 13.2091 52H39.6273C46.9224 52 52.8363 46.1797 52.8363 39V13C52.8363 5.8203 46.9224 0 39.6273 0Z" fill="#0C3CFF"/>
<path d="M47.2871 38.1989L45.548 39.9468L41.108 35.7956C43.254 32.7003 44.29 29.3866 44.29 25.818C44.29 22.5042 43.328 19.2998 41.367 16.2409C39.776 13.7283 37.815 11.7984 35.447 10.4146C32.709 8.81237 29.7119 8.01125 26.3819 8.01125C21.3129 8.01125 16.9839 9.79557 13.3578 13.4006C9.99081 16.7507 8.2888 20.7928 8.2888 25.5995C8.2888 31.2802 10.3608 35.8684 14.5048 39.3642C17.9089 42.2409 21.8309 43.6975 26.2339 43.6975C29.6009 43.6975 32.894 42.6779 36.113 40.6751L40.257 44.972L38.555 46.6471L35.595 43.8068C32.783 45.3362 29.6009 46.1009 26.0119 46.1009C20.0919 46.1009 15.1708 44.0253 11.2488 39.9468C9.58381 38.1989 8.2518 36.1233 7.25279 33.7563C6.10578 31.1345 5.55078 28.4398 5.55078 25.7816C5.55078 22.1037 6.54979 18.5715 8.5478 15.2213C10.3978 12.0897 12.9878 9.64991 16.2809 7.90201C19.4259 6.22694 22.7929 5.3894 26.4559 5.3894C32.45 5.3894 37.445 7.57428 41.478 12.0169C43.254 14.0197 44.66 16.2409 45.622 18.7535C46.51 21.0841 46.9911 23.451 46.9911 25.7816C46.9911 28.8768 46.14 32.0813 44.475 35.3222L47.2871 38.1989ZM43.809 41.5126L42.07 43.2606L36.335 37.7984C32.894 40.2017 29.4899 41.4034 26.1969 41.4034C21.6459 41.4034 17.8349 39.7648 14.8008 36.4874C11.9518 33.4286 10.5458 29.86 10.5458 25.7087C10.5458 22.9412 11.2488 20.3922 12.6178 18.0253C14.0978 15.4398 16.2069 13.4734 18.9079 12.0169C21.2389 10.7788 23.7179 10.1597 26.3079 10.1597C29.1569 10.1597 31.784 10.888 34.226 12.3082C36.668 13.7283 38.555 15.6219 39.961 18.0617C41.367 20.4286 42.033 23.0141 42.033 25.7451C42.033 29.4958 40.775 32.8824 38.259 35.8684L43.809 41.5126ZM26.4559 12.8544C22.6079 12.8544 19.3519 14.2381 16.6879 17.0057C14.3938 19.409 13.2098 22.3222 13.2098 25.7087C13.2098 28.2213 13.9128 30.5883 15.2818 32.8096C17.7609 36.7788 21.3869 38.7816 26.2339 38.7816C30.2299 38.7816 33.486 37.3614 36.076 34.5939C38.222 32.2634 39.295 29.4594 39.295 26.1457C39.295 22.0309 37.889 18.7171 35.04 16.1681C32.635 14.0561 29.7859 12.9272 26.4559 12.8544ZM26.4559 15.0757C29.7119 15.0757 32.413 16.3138 34.559 18.7535C36.298 20.6835 37.186 23.0869 37.186 25.9272C37.186 29.0589 36.002 31.6807 33.671 33.7928C31.5619 35.7227 29.0829 36.6695 26.1969 36.6695C22.9039 36.6695 20.2399 35.4678 18.1679 33.1009C16.3549 30.9888 15.4298 28.5491 15.4298 25.818C15.4298 22.6499 16.6509 19.9552 19.1299 17.7704C21.1279 15.986 23.5699 15.1121 26.4559 15.0757ZM26.6409 17.6975C24.1619 17.6975 22.0899 18.5715 20.3509 20.2465C18.8339 21.7395 18.0939 23.6331 18.0939 26C18.0939 28.4034 18.9449 30.3698 20.6099 31.8992C22.2009 33.3194 24.1619 34.0477 26.4559 34.0477C28.8609 34.0477 30.8219 33.2101 32.302 31.5351C33.782 29.9328 34.485 27.9664 34.485 25.7451C34.485 23.269 33.708 21.2662 32.117 19.846C30.6369 18.4622 28.8239 17.7704 26.6409 17.6975Z" fill="#FEFEFE"/>
<path d="M74.598 7.75635C71.009 7.75635 68.16 8.8852 66.236 11.1793V8.15691H58.8359V43.8432H66.569V31.6079C68.567 33.7563 71.268 34.776 74.598 34.776C82.0721 34.776 87.8811 29.5323 87.8811 21.2662C87.8811 13.0365 82.0721 7.75635 74.598 7.75635ZM73.266 28.5491C69.381 28.5491 66.458 25.818 66.458 21.2662C66.458 16.7507 69.381 14.0197 73.266 14.0197C77.1141 14.0197 80.0371 16.7507 80.0371 21.2662C80.0371 25.818 77.1141 28.5491 73.266 28.5491ZM111.043 8.15691V10.9244C109.119 8.81237 106.344 7.75635 103.088 7.75635C95.5402 7.75635 89.7681 13.0365 89.7681 21.2662C89.7681 29.5323 95.5402 34.776 103.088 34.776C106.64 34.776 109.489 33.6471 111.413 31.353V34.3754H118.776V8.15691H111.043ZM104.42 28.5491C100.572 28.5491 97.5752 25.818 97.5752 21.2662C97.5752 16.7507 100.572 14.0197 104.42 14.0197C108.231 14.0197 111.191 16.7507 111.191 21.2662C111.191 25.818 108.231 28.5491 104.42 28.5491ZM140.791 8.15691V19.5183C140.791 24.3614 138.201 26.5827 134.649 26.5827C131.208 26.5827 129.247 24.6527 129.247 20.2101V8.15691H121.514V21.339C121.514 29.4594 126.213 33.1373 132.91 33.1373C135.981 33.1373 138.756 32.1177 140.791 30.1149V30.9888C140.791 35.7227 138.571 38.0897 133.354 38.0897C130.024 38.0897 126.583 36.9608 124.326 35.1765L121.255 40.6387C124.326 43.0056 129.099 44.2437 133.983 44.2437C143.307 44.2437 148.525 39.7647 148.525 30.0056V8.15691H140.791Z" fill="#0C3CFF"/>
</svg>
